# xmcd
#
# Track frame offsets:
#	150
#	12920
#	24885
#	35627
#	48165
#	58842
#	73452
#	85677
#	98372
#	109445
#	120722
#	131237
#	144415
#	156527
#
# Disc length: 2264 seconds
#
# Revision: 0
# Processed by: cddbd v1.4PL0 Copyright (c) Steve Scherf et al.
# Submitted via: dBpowerAMP V4.0
#
DISCID=c308d60e
DTITLE=Bobby Vinton - Wonderful Melodies
DYEAR=1972
DGENRE=Blues
TTITLE0=Blue Velvet
TTITLE1=Roses Are Red (My Love)
TTITLE2=Blue On Blue
TTITLE3=I'll Never Fall In Love Again
TTITLE4=There I've Said It Again
TTITLE5=My Elusive Dreams
TTITLE6=Mr. Lonely
TTITLE7=Sealed With A Kiss
TTITLE8=Come Softly To Me
TTITLE9=I Love How You Love Me
TTITLE10=To Know You Is To Love You
TTITLE11=Our Day Will Come
TTITLE12=My Heart Belongs To Only You
TTITLE13=Till
EXTD=
EXTT0=
EXTT1=
EXTT2=
EXTT3=
EXTT4=
EXTT5=
EXTT6=
EXTT7=
EXTT8=
EXTT9=
EXTT10=
EXTT11=
EXTT12=
EXTT13=
PLAYORDER=
